<?xml version="1.0" encoding="iso-8859-1"?>
<!-- Generator: Adobe Illustrator 19.0.0, SVG Export Plug-In . SVG Version: 6.00 Build 0)  -->
<svg version="1.1" id="Capa_1" xmlns="http://www.w3.org/2000/svg" xmlns:xlink="http://www.w3.org/1999/xlink" x="0px" y="0px"
	 viewBox="0 0 464 464" style="enable-background:new 0 0 464 464;" xml:space="preserve">
<g>
	<g>
		<rect x="160" y="278.96" width="96" height="16"/>
	</g>
</g>
<g>
	<g>
		<rect x="272" y="278.96" width="16" height="16"/>
	</g>
</g>
<g>
	<g>
		<path d="M368,102.96c-5.352,0-10.616,0.44-15.752,1.304C332.496,46.608,277.504,6.96,216,6.96
			c-73.824,0-135.352,55.8-143.152,128.32C32.072,138.904,0,173.256,0,214.96c0,44.112,35.888,80,80,80h32v48h45.752l-8,32h48
			l-20.52,82.08l114.08-114.08H336c31.304,0,58.024-23.08,63.04-53.24c38.488-13.096,64.96-49.632,64.96-90.76
			C464,146.024,420.936,102.96,368,102.96z M206.768,404.88l11.48-45.92h-48l4-16h94.44L206.768,404.88z M383.784,283.032
			C381.8,307.664,360.808,326.96,336,326.96h-28.688h-145.56H128v-32v-57.024c0.584-47.96,40.064-86.976,88-86.976
			c30.128,0,57.872,15.192,74.216,40.624c7.264,11.392,11.848,24.496,13.264,37.896l1.208,11.48l10.32-5.16
			c6.424-3.216,13.488-4.84,20.992-4.84c26.472,0,48,21.528,48,48C384,280.272,383.936,281.576,383.784,283.032z M399.672,272.432
			c-0.216-2.096-0.536-4.16-0.952-6.192c-0.112-0.56-0.28-1.096-0.408-1.648c-0.336-1.448-0.68-2.896-1.112-4.312
			c-0.216-0.704-0.488-1.384-0.728-2.072c-0.424-1.224-0.84-2.456-1.336-3.64c-0.304-0.744-0.664-1.456-0.992-2.176
			c-0.504-1.104-1.016-2.208-1.584-3.272c-0.392-0.736-0.824-1.448-1.24-2.168c-0.584-1.008-1.176-2.016-1.816-2.992
			c-0.464-0.712-0.968-1.4-1.456-2.088c-0.664-0.928-1.344-1.856-2.056-2.744c-0.536-0.672-1.096-1.328-1.664-1.976
			c-0.736-0.856-1.496-1.688-2.28-2.504c-0.608-0.624-1.224-1.24-1.848-1.84c-0.808-0.776-1.64-1.528-2.488-2.264
			c-0.664-0.568-1.328-1.128-2.016-1.672c-0.88-0.696-1.776-1.368-2.696-2.016c-0.712-0.504-1.424-1.008-2.16-1.488
			c-0.944-0.616-1.912-1.192-2.888-1.752c-0.76-0.44-1.52-0.88-2.296-1.296c-1.008-0.528-2.048-1.008-3.088-1.488
			c-0.792-0.36-1.568-0.736-2.376-1.072c-1.088-0.448-2.208-0.832-3.328-1.216c-0.8-0.28-1.592-0.576-2.408-0.824
			c-1.184-0.36-2.392-0.64-3.608-0.928c-0.792-0.192-1.56-0.408-2.36-0.568c-1.344-0.264-2.72-0.448-4.088-0.624
			c-0.696-0.088-1.376-0.232-2.08-0.296c-2.072-0.232-4.184-0.344-6.32-0.344c-6.312,0-12.408,0.872-18.216,2.6
			c-2.56-12.24-7.352-24.04-14.096-34.608C284.384,152.904,251.6,134.96,216,134.96c-56.656,0-103.312,46.112-104,102.88v41.12H80
			c-35.288,0-64-28.712-64-64c0-35.288,28.712-64,64.24-64h7.552l0.432-7.544C92.088,75.872,148.216,22.96,216,22.96
			c56.904,0,107.52,38.176,123.104,92.832l2.144,7.512l7.56-1.96c6.104-1.584,12.568-2.384,19.192-2.384c44.112,0,80,35.888,80,80
			C448,231.144,428.576,259.992,399.672,272.432z"/>
	</g>
</g>
<g>
	<g>
		<path d="M216,46.96v16c48.52,0,88,39.48,88,88h16C320,93.616,273.344,46.96,216,46.96z"/>
	</g>
</g>
<g>
	<g>
		<rect x="63.998" y="374.956" transform="matrix(0.6 -0.8 0.8 0.6 -272.7656 220.3808)" width="40" height="16"/>
	</g>
</g>
<g>
	<g>
		<rect x="103.998" y="406.956" transform="matrix(0.6 -0.8 0.8 0.6 -282.3656 265.1808)" width="40" height="16"/>
	</g>
</g>
<g>
	<g>
		<rect x="-0.002" y="406.956" transform="matrix(0.6 -0.8 0.8 0.6 -323.9656 181.9808)" width="40" height="16"/>
	</g>
</g>
<g>
	<g>
		<rect x="279.998" y="374.956" transform="matrix(0.6 -0.8 0.8 0.6 -186.3656 393.1808)" width="40" height="16"/>
	</g>
</g>
<g>
	<g>
		<rect x="327.998" y="406.956" transform="matrix(0.6 -0.8 0.8 0.6 -192.7656 444.3808)" width="40" height="16"/>
	</g>
</g>
<g>
	<g>
		
			<rect x="392.049" y="374.999" transform="matrix(0.6002 -0.7999 0.7999 0.6002 -141.6017 482.7185)" width="40.002" height="16.001"/>
	</g>
</g>
<g>
</g>
<g>
</g>
<g>
</g>
<g>
</g>
<g>
</g>
<g>
</g>
<g>
</g>
<g>
</g>
<g>
</g>
<g>
</g>
<g>
</g>
<g>
</g>
<g>
</g>
<g>
</g>
<g>
</g>
</svg>
